<?xml version="1.0" encoding="UTF-8" standalone="no"?> <svg width="64" height="64" viewBox="0 0 64 64" fill="none" xmlns="http://www.w3.org/2000/svg">
<path d="M41 26V25C41.2652 25 41.5196 24.8946 41.7071 24.7071C41.8946 24.5196 42 24.2652 42 24V21C42 18.3478 40.9464 15.8043 39.0711 13.9289C37.1957 12.0536 34.6522 11 32 11C29.3478 11 26.8043 12.0536 24.9289 13.9289C23.0536 15.8043 22 18.3478 22 21V24C22 24.2652 22.1054 24.5196 22.2929 24.7071C22.4804 24.8946 22.7348 25 23 25V26C23.0023 27.6741 23.4714 29.3143 24.3547 30.7364C25.238 32.1584 26.5004 33.306 28 34.05V35.236L22.154 36.826C20.6757 37.2353 19.3719 38.1169 18.4413 39.3364C17.5108 40.5558 17.0046 42.0461 17 43.58V50C17 50.2652 17.1054 50.5196 17.2929 50.7071C17.4804 50.8946 17.7348 51 18 51H46C46.2652 51 46.5196 50.8946 46.7071 50.7071C46.8946 50.5196 47 50.2652 47 50V43.58C46.9953 42.0456 46.4887 40.5548 45.5576 39.3352C44.6265 38.1155 43.3219 37.234 41.843 36.825L36 35.236V34.05C37.4996 33.306 38.762 32.1584 39.6453 30.7364C40.5286 29.3143 40.9977 27.6741 41 26V26ZM24 21C24 18.8783 24.8429 16.8434 26.3431 15.3431C27.8434 13.8429 29.8783 13 32 13C34.1217 13 36.1566 13.8429 37.6569 15.3431C39.1571 16.8434 40 18.8783 40 21V22.951C39.199 22.8389 38.4375 22.5331 37.7816 22.0599C37.1256 21.5868 36.5951 20.9607 36.236 20.236L35.895 19.553C35.8241 19.4115 35.7206 19.2889 35.5931 19.1953C35.4656 19.1016 35.3176 19.0395 35.1614 19.0141C35.0053 18.9887 34.8453 19.0008 34.6947 19.0493C34.544 19.0977 34.4071 19.1813 34.295 19.293L32.636 20.95C31.9876 21.6019 31.2163 22.1188 30.3668 22.4707C29.5173 22.8225 28.6065 23.0025 27.687 23H24V21ZM25 26V25H27.687C28.8692 25.0033 30.0404 24.7721 31.1326 24.3196C32.2249 23.8671 33.2165 23.2024 34.05 22.364L34.75 21.664C35.7007 23.2235 37.2277 24.3455 39 24.787V26C39 27.8565 38.2625 29.637 36.9497 30.9497C35.637 32.2625 33.8565 33 32 33C30.1435 33 28.363 32.2625 27.0503 30.9497C25.7375 29.637 25 27.8565 25 26ZM33 43V40.469L36.6 37.469L38 37.849V39.583L32 45.583L26 39.583V37.852L27.4 37.472L31 40.472V43H33ZM45 43.58V49H19V43.58C19.0036 42.4841 19.3655 41.4195 20.0304 40.5484C20.6954 39.6773 21.6269 39.0475 22.683 38.755L24 38.4V40C24.0001 40.2652 24.1054 40.5195 24.293 40.707L31.293 47.707C31.4805 47.8945 31.7348 47.9998 32 47.9998C32.2652 47.9998 32.5195 47.8945 32.707 47.707L39.707 40.707C39.8946 40.5195 39.9999 40.2652 40 40V38.4L41.314 38.758C42.37 39.0501 43.3017 39.6793 43.9671 40.5498C44.6325 41.4203 44.9952 42.4843 45 43.58V43.58ZM34.349 36.743L32 38.7L29.651 36.744C29.7591 36.6523 29.8462 36.5383 29.9064 36.41C29.9667 36.2816 29.9986 36.1418 30 36V34.768C31.3154 35.0773 32.6846 35.0773 34 34.768V36C34.0016 36.1416 34.0336 36.2812 34.0938 36.4094C34.154 36.5376 34.241 36.6514 34.349 36.743V36.743Z" fill="black"/>
<path d="M36 27H34C34 27.5304 33.7893 28.0391 33.4142 28.4142C33.0391 28.7893 32.5304 29 32 29C31.4696 29 30.9609 28.7893 30.5858 28.4142C30.2107 28.0391 30 27.5304 30 27H28C28 28.0609 28.4214 29.0783 29.1716 29.8284C29.9217 30.5786 30.9391 31 32 31C33.0609 31 34.0783 30.5786 34.8284 29.8284C35.5786 29.0783 36 28.0609 36 27Z" fill="black"/>
<path d="M34.309 5.10503L36.709 2.70503L35.293 1.29303L31.293 5.29303C31.1056 5.48056 31.0002 5.73487 31.0002 6.00003C31.0002 6.26519 31.1056 6.5195 31.293 6.70703L35.293 10.707L36.707 9.29303L34.543 7.12903C40.4234 7.72686 45.9017 10.3888 50.0057 14.6424C54.1097 18.896 56.5738 24.4661 56.9608 30.3641C57.3478 36.2621 55.6325 42.1064 52.1195 46.8597C48.6064 51.6131 43.5229 54.968 37.771 56.329L38.229 58.275C44.4742 56.7937 49.9875 53.136 53.7801 47.9579C57.5727 42.7798 59.3966 36.4199 58.9247 30.0188C58.4528 23.6177 55.7159 17.594 51.205 13.0281C46.694 8.4621 40.704 5.65247 34.309 5.10303V5.10503Z" fill="black"/>
<path d="M28.707 53.293L27.293 54.707L29.457 56.871C23.5767 56.2732 18.0983 53.6113 13.9944 49.3577C9.89039 45.1041 7.42623 39.5339 7.03926 33.636C6.6523 27.738 8.36756 21.8937 11.8806 17.1403C15.3936 12.387 20.4772 9.03205 26.229 7.67104L25.771 5.72504C19.5237 7.20451 14.008 10.8617 10.2135 16.0405C6.41904 21.2192 4.59408 27.5806 5.06608 33.9834C5.53809 40.3861 8.27615 46.4111 12.789 50.9775C17.3019 55.5438 23.2943 58.3527 29.691 58.9L27.291 61.3L28.705 62.714L32.705 58.714C32.8925 58.5265 32.9978 58.2722 32.9978 58.007C32.9978 57.7419 32.8925 57.4876 32.705 57.3L28.707 53.293Z" fill="black"/>
</svg>
