<?xml version="1.0" encoding="UTF-8"?>
<!DOCTYPE svg PUBLIC "-//W3C//DTD SVG 1.1//EN" "http://www.w3.org/Graphics/SVG/1.1/DTD/svg11.dtd">
<!-- Creator: CorelDRAW -->
<svg xmlns="http://www.w3.org/2000/svg" xml:space="preserve" width="512px" height="512px" version="1.1" style="shape-rendering:geometricPrecision; text-rendering:geometricPrecision; image-rendering:optimizeQuality; fill-rule:evenodd; clip-rule:evenodd"
viewBox="0 0 512 512"
 xmlns:xlink="http://www.w3.org/1999/xlink">
 <defs>
  <style type="text/css">
   <![CDATA[
    .fil0 {fill:black}
   ]]>
  </style>
 </defs>
 <g id="Layer_x0020_1">
  <metadata id="CorelCorpID_0Corel-Layer"/>
  <g id="_350137776">
   <path class="fil0" d="M337 512l-314 0c-5,0 -8,-3 -8,-8l0 -496c0,-5 3,-8 8,-8l271 0 2 97 99 -1 0 152c-6,-2 -13,-2 -18,1 -3,2 -6,4 -8,7 -3,4 -11,9 -16,12 -20,10 -46,14 -68,17 -10,1 -18,8 -19,18 -6,58 -1,133 37,179 9,13 21,23 34,30zm-84 -62l-199 0c-4,0 -8,-3 -8,-8 0,-4 4,-7 8,-7l199 0c4,0 8,3 8,7 0,5 -4,8 -8,8zm-19 -92l-180 0c-4,0 -8,-3 -8,-7 0,-4 4,-8 8,-8l180 0c4,0 7,4 7,8 0,4 -3,7 -7,7zm-15 -75l-165 0c-4,0 -8,-4 -8,-8 0,-4 4,-7 8,-7l165 0c5,0 8,3 8,7 0,4 -3,8 -8,8zm-33 -77l-132 0c-4,0 -8,-3 -8,-7 0,-4 4,-7 8,-7l132 0c4,0 8,3 8,7 0,4 -4,7 -8,7z"/>
   <path class="fil0" d="M387 512c0,0 0,0 0,0 0,0 0,0 -1,0 -30,-3 -54,-16 -73,-38 -47,-60 -34,-165 -33,-169 0,-4 3,-6 6,-7 77,-6 94,-32 95,-34 1,-1 2,-2 3,-3 3,-1 8,0 10,3 0,1 17,28 94,34 4,1 6,3 7,7 0,4 14,109 -34,168 -18,23 -42,36 -73,38 0,1 0,1 -1,1zm-15 -77c0,0 0,0 0,0 -2,0 -4,-1 -6,-2 0,0 -1,-1 -1,-1l-37 -36c-7,-8 -7,-19 0,-26 7,-7 19,-7 26,0l17 17 49 -48c3,-4 7,-6 12,-6 5,0 10,2 13,6 4,3 6,8 6,13 0,5 -2,9 -6,13l-67 67c-1,1 -1,1 -2,2 -1,0 -2,1 -4,1zm-31 -57c-1,0 -2,1 -2,1 -1,2 -1,4 0,6l33 32 63 -63c2,-1 2,-2 2,-3 0,0 0,-1 -2,-2 0,0 0,-1 0,-1 -1,0 -2,-1 -3,-1 0,0 -1,0 -2,1l-53 54c-2,1 -4,2 -5,2l0 0c-2,0 -4,-1 -5,-2l-23 -22c-1,-1 -2,-2 -3,-2z"/>
   <polygon class="fil0" points="309,0 310,83 395,83 "/>
  </g>
 </g>
</svg>
